<?xml version="1.0" encoding="UTF-8"?><svg xmlns="http://www.w3.org/2000/svg" viewBox="0 0 262.09 62.17"><defs><style>.d{fill:#f9b233;}.e{letter-spacing:.01em;}.f{fill:#001c58;font-family:Apple-Chancery, Apple Chancery;font-size:24px;}.g{opacity:.65;}.h{letter-spacing:-.01em;}</style></defs><g id="a"/><g id="b"><g id="c"><g class="g"><path class="d" d="M131.04,62.17c-.67-20.68-.67-41.49,0-62.17,.67,20.68,.67,41.5,0,62.17h0Z"/><path class="d" d="M128.96,58.85c-1.07-16.09-1-32.48-.41-48.59,.14-2.31,.22-4.63,.41-6.94h.1c-.05,13.78,.24,41.96-.1,55.53h0Z"/><g><line class="d" x1="133.42" y1="3.32" x2="133.42" y2="58.85"/><path class="d" d="M133.47,3.32c1.07,16.09,1,32.48,.41,48.59-.14,2.31-.22,4.63-.41,6.94h-.1c.05-13.78-.24-41.96,.1-55.53h0Z"/></g><path class="d" d="M99.96,30.91c20.68-.67,41.49-.67,62.17,0-20.68,.67-41.5,.67-62.17,0h0Z"/><path class="d" d="M103.28,28.83c16.09-1.07,32.48-1,48.59-.41,2.31,.14,4.63,.22,6.94,.41v.1c-13.78-.05-41.96,.24-55.53-.1h0Z"/><g><line class="d" x1="158.81" y1="33.29" x2="103.28" y2="33.29"/><path class="d" d="M158.81,33.34c-16.09,1.07-32.48,1-48.59,.41-2.31-.14-4.63-.22-6.94-.41v-.1c13.78,.05,41.96-.24,55.53,.1h0Z"/></g></g><text class="f" transform="translate(5.05 43.55)"><tspan x="0" y="0">Le </tspan><tspan class="e" x="30.95" y="0">R</tspan><tspan x="50.13" y="0">elais de la c</tspan><tspan class="h" x="162.54" y="0">r</tspan><tspan x="172.18" y="0">oix d’Or</tspan></text></g></g></svg>